<?xml version="1.0" encoding="UTF-8" standalone="no"?>
<!-- Created with Inkscape (http://www.inkscape.org/) -->

<svg
   xmlns:dc="http://purl.org/dc/elements/1.1/"
   xmlns:cc="http://creativecommons.org/ns#"
   xmlns:rdf="http://www.w3.org/1999/02/22-rdf-syntax-ns#"
   xmlns:svg="http://www.w3.org/2000/svg"
   xmlns="http://www.w3.org/2000/svg"
   xmlns:sodipodi="http://sodipodi.sourceforge.net/DTD/sodipodi-0.dtd"
   xmlns:inkscape="http://www.inkscape.org/namespaces/inkscape"
   width="510"
   height="570"
   id="svg2"
   version="1.1"
   inkscape:version="0.48.4 r9939"
   sodipodi:docname="reactba.svg"
   inkscape:export-filename="C:\Users\Redit\Desktop\juventus\vectores\reactba.png"
   inkscape:export-xdpi="90"
   inkscape:export-ydpi="90">
  <defs
     id="defs4">
    <clipPath
       clipPathUnits="userSpaceOnUse"
       id="clipPath4015">
      <rect
         style="opacity:0.38885462;color:#000000;fill:#000080;fill-opacity:1;fill-rule:nonzero;stroke:none;stroke-width:1;marker:none;visibility:visible;display:inline;overflow:visible;enable-background:accumulate"
         id="rect4017"
         width="71.428574"
         height="564.28577"
         x="-82.85714"
         y="-13.352103" />
    </clipPath>
    <clipPath
       clipPathUnits="userSpaceOnUse"
       id="clipPath4185">
      <path
         style="color:#000000;fill:#ffffff;fill-opacity:1;fill-rule:nonzero;stroke:#ffffff;stroke-width:2;stroke-miterlimit:4;stroke-opacity:1;stroke-dasharray:none;marker:none;visibility:visible;display:inline;overflow:visible;enable-background:accumulate"
         d="m 817.98932,692.15814 c 0,-3.33928 1.6088,-35.64285 3.5646,-71.78571 1.9557,-36.14286 7.3942,-139.64286 12.0855,-230 4.6913,-90.35714 8.9313,-169.59733 9.4223,-176.08931 l 0.8926,-11.8036 9.0908,-11.05355 c 4.9999,-6.07945 11.0314,-13.30354 13.40329,-16.05354 l 4.31249,-5 0.038,263.92857 0.038,263.92857 -26.42858,0 -26.4286,0 0.01,-6.07143 0,0 z"
         id="path4187"
         inkscape:connector-curvature="0" />
    </clipPath>
  </defs>
  <sodipodi:namedview
     id="base"
     pagecolor="#ffffff"
     bordercolor="#666666"
     borderopacity="1.0"
     inkscape:pageopacity="0.0"
     inkscape:pageshadow="2"
     inkscape:zoom="0.49497475"
     inkscape:cx="245.70574"
     inkscape:cy="378.28456"
     inkscape:document-units="px"
     inkscape:current-layer="layer1"
     showgrid="false"
     units="cm"
     fit-margin-top="0"
     fit-margin-left="0"
     fit-margin-right="0"
     fit-margin-bottom="0"
     inkscape:window-width="1366"
     inkscape:window-height="705"
     inkscape:window-x="-8"
     inkscape:window-y="-8"
     inkscape:window-maximized="1" />
  <metadata
     id="metadata7">
    <rdf:RDF>
      <cc:Work
         rdf:about="">
        <dc:format>image/svg+xml</dc:format>
        <dc:type
           rdf:resource="http://purl.org/dc/dcmitype/StillImage" />
        <dc:title></dc:title>
      </cc:Work>
    </rdf:RDF>
  </metadata>
  <g
     inkscape:label="Capa 1"
     inkscape:groupmode="layer"
     id="layer1"
     transform="translate(-142.14285,-133.07648)">
    <path
       style="color:#000000;fill:#00d8ff;fill-opacity:1;fill-rule:nonzero;stroke:none;stroke-width:2.02030516;marker:none;visibility:visible;display:inline;overflow:visible;enable-background:accumulate"
       d="m 328.44852,676.04897 c 0.34897,-12.41405 1.6039,-40.62694 2.78875,-62.69529 1.18484,-22.06834 1.93687,-40.34164 1.67119,-40.60733 -0.26569,-0.26568 -5.88029,1.11287 -12.4769,3.06347 -56.94749,16.83913 -108.44748,18.0162 -140.21525,3.20472 -21.95515,-10.23641 -32.30836,-26.06228 -32.12736,-49.1097 0.2277,-28.99374 19.15361,-65.1663 55.21071,-105.52269 l 5.9787,-6.69158 -6.07162,-6.25995 c -18.0483,-18.60811 -36.49703,-46.18702 -46.08312,-68.88941 -5.64214,-13.36206 -7.92282,-22.77973 -8.5292,-35.21975 -0.90143,-18.49306 2.71501,-29.01022 13.80474,-40.1463 19.27865,-19.35923 56.92411,-26.13119 105.809,-19.03374 21.72265,3.15383 45.09846,8.89962 69.20996,17.01183 l 11.80779,3.97269 0.55158,-5.21369 c 0.30337,-2.86754 1.26705,-20.65484 2.14153,-39.52736 0.87448,-18.87251 1.94304,-34.78241 2.37458,-35.35534 8.39548,-11.14603 40.80338,-50.48067 42.40841,-51.47263 1.01736,-0.62876 11.32267,11.1309 30.58996,34.90701 l 13.61486,16.80094 1.73419,36.73715 c 0.95381,20.20543 1.94596,38.10827 2.20478,39.78409 l 0.47058,3.04696 14.89826,-4.84124 c 42.87347,-13.93185 81.73455,-20.06648 113.18444,-17.86733 25.37746,1.77454 43.8383,7.78021 56.02808,18.22703 29.85482,25.586 18.29962,77.66402 -30.12461,135.76838 -5.09326,6.11142 -10.4592,12.21369 -11.9243,13.5606 -3.41367,3.1383 -3.35137,4.10402 0.49782,7.71615 4.90445,4.60238 21.07279,24.2253 28.01797,34.00438 18.27095,25.72618 28.95261,51.06388 30.13941,71.49301 0.68193,11.73854 -0.6711,18.8451 -5.38,28.25765 -12.29936,24.58498 -50.93164,36.89045 -101.39587,32.29745 -21.32696,-1.94107 -44.75069,-6.51766 -66.63815,-13.01992 -5.74926,-1.70797 -10.68979,-2.86884 -10.97892,-2.5797 -0.28915,0.28913 0.0224,10.86167 0.69228,23.49452 2.47987,46.76516 4.17677,84.85053 4.18517,93.93202 l 0.009,9.34391 -69.35626,0 -69.35629,0 0.63448,-22.57101 z m 64.33695,-57.33911 c 0,-56.26107 -0.25956,-70.71104 -1.26269,-70.29471 -0.69448,0.28823 -7.39937,3.22697 -14.89976,6.53053 -7.50039,3.30358 -18.29639,7.73191 -23.99113,9.84075 l -10.35406,3.83423 -0.009,4.13797 c -0.005,2.27589 -1.1386,25.04813 -2.51857,50.60499 -1.37997,25.55686 -2.5121,50.89906 -2.51584,56.316 l -0.007,9.84899 27.77919,0 27.77921,0 0,-70.81875 z M 275.51805,562.76658 c 17.42651,-3.09424 29.57183,-6.10774 46.68658,-11.58387 l 12.75676,-4.08172 0.73786,-16.72771 c 0.40583,-9.20025 0.57469,-16.85449 0.37523,-17.00943 -0.19945,-0.15494 -4.45376,-2.70915 -9.45401,-5.67603 -31.40412,-18.63351 -67.20498,-44.27385 -93.52327,-66.98074 l -7.66031,-6.60917 -6.51447,7.25467 c -36.80741,40.98952 -54.76658,80.73565 -45.97206,101.7425 4.43163,10.58554 19.15278,18.4035 41.0381,21.79412 13.60081,2.10714 43.52109,1.07496 61.52959,-2.12262 l 0,0 z m 312.63866,0.0132 c 15.79179,-3.33741 25.86587,-8.64463 31.37601,-16.52947 2.99326,-4.28323 3.06137,-4.6484 3.01485,-16.16244 -0.0387,-9.57167 -0.47835,-13.01118 -2.3453,-18.34619 -3.80719,-10.87948 -11.98956,-26.66427 -19.97573,-38.53564 -7.47497,-11.11147 -23.47172,-30.97916 -29.48789,-36.62348 l -3.12645,-2.93321 -7.35878,6.52122 c -25.77371,22.84022 -61.9508,49.1942 -91.95906,66.98962 l -9.84899,5.84061 0.10021,8.2093 c 0.0551,4.51511 0.39607,12.03167 0.75762,16.70345 l 0.65735,8.49414 5.55584,1.89611 c 19.19649,6.55139 51.11312,13.72598 70.71068,15.89516 12.73647,1.40975 42.37685,0.59974 51.92959,-1.41913 l 5e-5,-5e-5 z M 355.58204,538.94726 c 16.97256,-6.76184 16.7268,-5.48716 2.55432,-13.24842 l -12.323,-6.74844 -0.63954,6.24468 c -0.80833,7.89276 -1.0265,17.86141 -0.39091,17.86141 0.26663,0 5.12624,-1.84915 10.79913,-4.10923 l 0,0 z m 37.20343,-201.45681 c 0,-108.16493 -0.36926,-180.31223 -0.92287,-180.31223 -1.16727,0 -27.76316,31.19093 -28.67358,33.62759 -0.37149,0.99428 -1.57626,19.63159 -2.67727,41.41625 -2.01552,39.87928 -3.23082,62.69033 -5.12402,96.17702 -3.04078,53.78485 -8.38859,156.21274 -8.54338,163.63328 -0.0246,1.17645 11.60146,7.98061 31.2939,18.31489 7.77818,4.08185 14.25578,7.42917 14.39468,7.43849 0.1389,0.009 0.25254,-81.12357 0.25254,-180.29529 z m -54.54825,147.82381 c 0,-1.20111 1.61358,-31.94131 3.58573,-68.31156 1.97214,-36.37025 3.44949,-68.12464 3.28299,-70.56531 l -0.30273,-4.43758 -17.17259,10.94666 c -19.2331,12.26012 -30.38901,20.0025 -45.96194,31.89835 -11.69132,8.93077 -33.55511,27.26379 -37.12775,31.13202 l -2.2775,2.46593 8.43194,7.17977 c 11.00801,9.3733 21.11569,17.38142 33.18026,26.28807 14.20201,10.4846 51.77348,35.38706 53.60398,35.52882 0.41668,0.0322 0.75761,-0.92406 0.75761,-2.12517 l 0,0 z m 141.84441,-12.81077 c 24.044,-15.8569 48.04962,-34.20084 67.11124,-51.28319 l 4.39976,-3.94291 -9.81176,-8.57874 c -14.29836,-12.50151 -31.40608,-25.95417 -47.21935,-37.13094 -13.93287,-9.8477 -43.03127,-28.51801 -44.4499,-28.52023 -1.17972,-0.002 -0.98721,5.23943 2.77958,75.67838 1.94363,36.34571 3.53387,66.72524 3.53387,67.51007 0,1.74031 1.62824,0.79513 23.65656,-13.73244 l 0,0 z M 230.23398,397.99866 c 2.79566,-3.3702 25.89112,-22.4966 40.32302,-33.39333 17.58347,-13.27632 46.24821,-32.4867 63.7749,-42.74034 l 12.76219,-7.46627 0.71131,-10.03293 c 0.39121,-5.51812 0.33033,-10.40713 -0.13529,-10.86447 -1.58858,-1.56035 -31.11554,-11.16623 -46.80853,-15.22802 -56.97715,-14.74734 -105.51958,-12.62318 -122.94406,5.3799 -4.85018,5.01123 -6.559,10.08712 -6.54757,19.44885 0.0122,9.95069 1.98831,18.75449 6.84476,30.49357 8.15935,19.72289 25.19034,45.143 41.65748,62.17707 5.8141,6.01428 7.00676,6.2705 10.36179,2.22597 z m 342.99296,-2.67698 c 16.69452,-17.8213 32.63823,-41.10284 41.10292,-60.01988 12.54044,-28.02556 11.17029,-47.64731 -3.94569,-56.50586 -28.18979,-16.52031 -87.10197,-12.69755 -151.65349,9.84066 -6.54613,2.28559 -12.06148,4.29588 -12.25633,4.4673 -0.19486,0.17143 -0.0303,5.06543 0.36574,10.87556 l 0.72004,10.56387 13.27129,7.842 c 35.24088,20.82383 73.42008,48.63819 101.65967,74.06121 2.50012,2.25076 4.82067,4.11168 5.15676,4.13537 0.3361,0.0237 2.84668,-2.34341 5.57909,-5.26023 z"
       id="path4219"
       inkscape:connector-curvature="0"
       inkscape:export-xdpi="90"
       inkscape:export-ydpi="90" />
  </g>
</svg>
